<svg xmlns="http://www.w3.org/2000/svg" viewBox="0 0 1261 213">
  <defs>
    <linearGradient id="a" x1="0%" y1="0%" y2="100%">
      <stop offset="0%" stop-color="#2196F3"/>
      <stop offset="100%" stop-color="#2962FF"/>
    </linearGradient>
  </defs>
  <g fill="none" fill-rule="evenodd">
    <path fill="url(#a)" d="M34.08 0h144.84C197.741865 0 213 15.258135 213 34.08v144.84c0 18.821865-15.258135 34.08-34.079999 34.08H34.079999C15.258135 213 0 197.741865 0 178.920001V34.079999C0 15.258135 15.258135 0 34.08 0zm125.80258 192.039547l-.035081-.007016c12.115643-.200709 21.969619-9.820709 22.461363-21.928032.491743-12.107322-8.549623-22.494764-20.609082-23.677354l-43.640846-77.052053C111.67418 57.9106 99.346694 58.408752 94.90543 74.67935c-3.81682 15.407604-2.83455 29.924149-3.943111 47.464682-.007225.115266-.087842.212774-.199696.241536-.111853.028763-.229507-.017762-.29144-.115245l-38.96103-77.66948c3.179793-2.497143 5.0411-6.312824 5.051673-10.35593C56.561827 27.095635 50.76619 21.3 43.616912 21.3 36.467635 21.3 30.672 27.095635 30.672 34.244913s5.795635 12.944914 12.944913 12.944914c.61041 0 1.108562-.126292 1.599697-.126292C61.6135 89.22396 79.86267 138.41463 86.394765 149.759847c4.441263 10.847065 19.603299 7.395088 19.975159-4.314971l1.599696-61.518157c0-.37186.491135-.37186.617427-.126292l31.292311 74.456054c-1.86116 3.356543-2.827622 7.135408-2.806486 10.973357.015464 12.591044 10.218666 22.794246 22.809709 22.809709z"/>
    <path fill="#46494C" d="M283 40.4h26.8v59.8h69.8V40.4h26.8v140h-26.8v-56.8h-69.8v56.8H283v-140zm217.385186 140v-13c-3.733352 4.66669-8.533304 8.199988-14.4 10.6-5.866696 2.400012-12.599962 3.6-20.2 3.6-7.466704 0-14.033305-1.433319-19.7-4.3-5.666695-2.866681-10.033318-6.833308-13.1-11.9-3.066682-5.066692-4.6-10.733302-4.6-17 0-10.00005 3.533298-17.833305 10.6-23.5 7.066702-5.666695 17.066602-8.566666 30-8.7h31.2v-2.8c0-6.266698-2.066646-11.133316-6.2-14.6-4.133354-3.466684-10.133294-5.2-18-5.2-10.133384 0-20.733278 3.3333-31.8 10l-9.4-18c8.400042-4.66669 16.033299-8.033323 22.9-10.1 6.866701-2.066677 14.899954-3.1 24.1-3.1 13.866736 0 24.633295 3.3333 32.3 10 7.666705 6.6667 11.566666 15.99994 11.7 28l.2 70h-25.6zm-28.4-18.8c7.466704 0 13.86664-1.766649 19.2-5.3 5.33336-3.533351 8.33333-7.899974 9-13.1v-9.6h-27c-6.933368 0-12.033317 1.033323-15.3 3.1-3.266683 2.066677-4.9 5.43331-4.9 10.1 0 4.533356 1.699983 8.13332 5.1 10.8 3.400017 2.66668 8.033304 4 13.9 4zm143.785185-59.2c-5.200026-3.066682-10.566639-5.466658-16.1-7.2-5.533361-1.733342-10.63331-2.6-15.3-2.6-4.400022 0-7.899987.766659-10.5 2.3-2.600013 1.533341-3.9 3.899984-3.9 7.1 0 3.33335 1.633317 5.899991 4.9 7.7 3.266683 1.800009 8.433298 3.69999 15.5 5.7 7.466704 2.266678 13.599976 4.499989 18.4 6.7 4.800024 2.200011 8.966649 5.466645 12.5 9.8 3.533351 4.333355 5.3 10.033298 5.3 17.1 0 10.400052-3.99996 18.399972-12 24-8.00004 5.600028-18.066606 8.4-30.2 8.4-8.266708 0-16.333294-1.299987-24.2-3.9-7.866706-2.600013-14.533306-6.299976-20-11.1l9-18.2c4.800024 4.133354 10.5333 7.366655 17.2 9.7 6.6667 2.333345 12.99997 3.5 19 3.5 4.800024 0 8.633319-.833325 11.5-2.5 2.866681-1.666675 4.3-4.16665 4.3-7.5 0-3.733352-1.66665-6.533324-5-8.4-3.33335-1.866676-8.733296-3.933322-16.2-6.2-7.200036-2.133344-13.066644-4.233323-17.6-6.3-4.533356-2.066677-8.46665-5.199979-11.8-9.4-3.33335-4.200021-5-9.699966-5-16.5 0-10.533386 3.833295-18.566639 11.5-24.1 7.666705-5.533361 17.299942-8.3 28.9-8.3 7.066702 0 14.033299.99999 20.9 3 6.866701 2.00001 12.96664 4.799982 18.3 8.4l-9.4 18.8zm95.785186-30c12.266728 0 21.933298 3.699963 29 11.1 7.066702 7.400037 10.6 17.43327 10.6 30.1v66.8h-26.2v-59.2c0-7.466704-2.133312-13.366645-6.4-17.7-4.266688-4.333355-10.06663-6.5-17.4-6.5-8.66671.133334-15.533308 3.066638-20.6 8.8-5.066692 5.733362-7.6 13.066622-7.6 22v52.6h-26V32h26v61.8c7.33337-14.00007 20.199908-21.133332 38.6-21.4zm130.385186 0c12.266728 0 21.933298 3.699963 29 11.1 7.066702 7.400037 10.6 17.43327 10.6 30.1v66.8h-26.2v-59.2c0-7.466704-2.133312-13.366645-6.4-17.7-4.266688-4.333355-10.06663-6.5-17.4-6.5-8.66671.133334-15.499975 3.066638-20.5 8.8-5.000025 5.733362-7.5 13.066622-7.5 22v52.6h-26v-107h26v20c7.33337-13.733402 20.133242-20.733332 38.4-21zm112.785185.2c11.066722 0 20.833291 2.266644 29.3 6.8 8.466709 4.533356 15.066643 10.899959 19.800002 19.1 4.73336 8.200041 7.1 17.63328 7.1 28.3 0 10.800054-2.36664 20.333292-7.1 28.6-4.733359 8.266708-11.333293 14.666644-19.800002 19.2-8.466709 4.533356-18.233278 6.8-29.3 6.8-11.200056 0-21.066624-2.266644-29.6-6.8-8.533376-4.533356-15.166643-10.933292-19.9-19.2-4.733357-8.266708-7.1-17.799946-7.1-28.6 0-10.66672 2.366643-20.099959 7.1-28.3 4.733357-8.200041 11.366624-14.566644 19.9-19.1 8.533376-4.533356 18.399944-6.8 29.6-6.8zm0 22.2c-9.066712 0-16.399972 2.99997-22 9-5.600028 6.00003-8.4 13.799952-8.4 23.4s2.799972 17.39997 8.4 23.4c5.600028 6.00003 12.933288 9 22 9 8.800044 0 15.999972-2.99997 21.6-9 5.600028-6.00003 8.4-13.799952 8.4-23.4s-2.799972-17.39997-8.4-23.4c-5.600028-6.00003-12.799956-9-21.6-9zM1133.91111 32v148.4h-26v-17.2c-3.86668 6.00003-8.8333 10.566651-14.9 13.7-6.06669 3.133349-13.09996 4.7-21.1 4.7-10.13338 0-19.03329-2.299977-26.7-6.9-7.6667-4.600023-13.63331-11.066625-17.9-19.4-4.26668-8.333375-6.4-17.899946-6.4-28.7 0-10.66672 2.09998-20.099959 6.3-28.3 4.20003-8.200041 10.1333-14.566644 17.8-19.1 7.66671-4.533356 16.43329-6.8 26.3-6.8 8.13338 0 15.26664 1.599984 21.4 4.8 6.13337 3.200016 11.19998 7.79997 15.2 13.8V32h26zm-56.4 127.8c8.93338 0 16.23331-3.033303 21.9-9.1 5.6667-6.066697 8.5-13.899952 8.5-23.5s-2.8333-17.433303-8.5-23.5c-5.66669-6.066697-12.96662-9.1-21.9-9.1-8.93337 0-16.19997 3.033303-21.8 9.1-5.60002 6.066697-8.46666 13.899952-8.6 23.5.13334 9.600048 2.99998 17.433303 8.6 23.5 5.60003 6.066697 12.86663 9.1 21.8 9.1zm131.58519-87.2c17.06675 0 29.89996 4.866618 38.5 14.6 8.60004 9.733382 12.9 23.399912 12.9 41 0 3.466684-.06667 6.066658-.2 7.8h-79c1.73334 7.600038 5.29997 13.566645 10.7 17.9 5.40003 4.333355 12.03329 6.5 19.9 6.5 5.46669 0 10.69997-1.033323 15.7-3.1 5.00002-2.066677 9.36665-5.033314 13.1-8.9l14 14.6c-5.33336 5.866696-11.8333 10.399984-19.5 13.6-7.66671 3.200016-16.16662 4.8-25.5 4.8-10.93339 0-20.56663-2.266644-28.9-6.8-8.33338-4.533356-14.76664-10.899959-19.3-19.1s-6.8-17.63328-6.8-28.3c0-10.66672 2.29998-20.133292 6.9-28.4 4.60002-8.266708 11.03329-14.699977 19.3-19.3 8.26671-4.600023 17.66661-6.9 28.2-6.9zm27.6 46c-.26667-7.866706-2.86664-14.13331-7.8-18.8-4.93336-4.66669-11.46663-7-19.6-7-7.60004 0-13.96664 2.299977-19.1 6.9-5.13336 4.600023-8.29999 10.89996-9.5 18.9h56z"/>
  </g>
</svg>